<svg id="Layer_1" data-name="Layer 1" xmlns="http://www.w3.org/2000/svg" viewBox="0 0 182.83 158.17"><defs><style>.cls-1,.cls-2{fill:none;stroke:#32363a;stroke-miterlimit:10;}.cls-1{stroke-width:0.5px;}.cls-3,.cls-4{fill:#32363a;}.cls-4{font-size:9px;font-family:HeroNew-ExtraBold, Hero New;font-weight:800;}.cls-5{letter-spacing:-0.03em;}.cls-6{letter-spacing:-0.03em;}.cls-7{letter-spacing:-0.03em;}.cls-8{letter-spacing:-0.01em;}.cls-9{letter-spacing:-0.02em;}.cls-10{letter-spacing:-0.01em;}.cls-11{letter-spacing:-0.03em;}</style></defs><path class="cls-1" d="M71.19,65.34c2.39,1,2.4-1.31,4.8-2.46,2.39-.75,2.38,4.59,4.77,5.41,2.39,1,2.41-7.45,4.81-8.31,2.4-1.17,2.37,9.9,4.76,11.26,2.39.48,2.43-13.79,4.82-14.16,1.2-.41,1.79,3,2.37,7.34s1.17,9.38,2.37,9.77c2.39.51,2.45-19.2,4.84-20h.11c2.39.82,2.33,20.52,4.72,20,1.2-.39,1.81-5.54,2.43-9.76s1.21-7.74,2.41-7.32c2.39.38,2.35,14.65,4.74,14.18,2.4-1.34,2.43-12.41,4.82-11.23,2.4.87,2.37,9.35,4.77,8.33,2.39-.8,2.41-6.14,4.8-5.38,2.39,1.17,2.38,3.53,4.78,2.49"/><path class="cls-2" d="M123.67,95.71A45.07,45.07,0,1,0,53.18,42"/><path class="cls-3" d="M70.54,38.22A40,40,0,0,1,81.7,18.56a46.18,46.18,0,1,0,53.48,60.79,41.2,41.2,0,0,1-24.75,8.2c-22.6,0-40.93-18-40.93-40.3a39.56,39.56,0,0,1,1-9"/><text class="cls-4" transform="translate(43.25 126.65)">NOCTURNA<tspan class="cls-5" x="54.13" y="0">L</tspan><tspan x="59.15" y="0"> </tspan><tspan class="cls-6" x="61.31" y="0"> </tspan><tspan class="cls-7" x="63.19" y="0">V</tspan><tspan x="69.85" y="0">OICES </tspan><tspan x="28.19" y="10.8">P</tspan><tspan class="cls-8" x="34.2" y="10.8">R</tspan><tspan class="cls-9" x="40.24" y="10.8">O</tspan><tspan x="47.71" y="10.8">J</tspan><tspan class="cls-10" x="52.23" y="10.8">E</tspan><tspan x="57.7" y="10.8">C</tspan><tspan class="cls-11" x="63.77" y="10.8">T</tspan></text></svg>