<svg xmlns="http://www.w3.org/2000/svg" viewBox="0 0 100.36 124.11"><defs><style>.cls-1,.cls-2{fill:none;stroke:#e8e4dd;stroke-miterlimit:10;}.cls-1{stroke-width:0.5px;}.cls-10,.cls-11,.cls-3,.cls-5,.cls-7,.cls-8,.cls-9{fill:#e8e4dd;}.cls-10,.cls-11,.cls-4,.cls-5,.cls-7,.cls-8,.cls-9{isolation:isolate;}.cls-10,.cls-11,.cls-5,.cls-7,.cls-8,.cls-9{font-size:9px;font-family:Arial-BoldMT, Arial;font-weight:700;}.cls-6{letter-spacing:-0.04em;}.cls-7{letter-spacing:-0.05em;}.cls-8{letter-spacing:-0.03em;}.cls-9{letter-spacing:-0.02em;}.cls-10{letter-spacing:-0.01em;}.cls-11{letter-spacing:-0.02em;}</style></defs><g id="Layer_2" data-name="Layer 2"><g id="Layer_1-2" data-name="Layer 1"><path class="cls-1" d="M27.94,48.61c2.39,1,2.4-1.31,4.8-2.46,2.39-.75,2.38,4.59,4.77,5.41,2.39,1,2.41-7.45,4.81-8.31,2.4-1.17,2.37,9.9,4.76,11.26,2.39.48,2.43-13.79,4.82-14.16,1.2-.41,1.79,3,2.37,7.34s1.17,9.38,2.37,9.77c2.39.51,2.45-19.2,4.84-20h.11c2.39.82,2.33,20.52,4.72,20,1.2-.39,1.81-5.54,2.43-9.76S70,40,71.15,40.38c2.39.38,2.35,14.65,4.74,14.18,2.4-1.34,2.43-12.41,4.82-11.23,2.4.87,2.37,9.35,4.77,8.33,2.39-.8,2.41-6.14,4.8-5.38,2.39,1.17,2.38,3.53,4.78,2.49"/><path class="cls-2" d="M80.42,79A45.07,45.07,0,1,0,9.93,25.27"/><path class="cls-3" d="M27.29,21.49A40,40,0,0,1,38.45,1.83,46.18,46.18,0,1,0,91.93,62.62a41.18,41.18,0,0,1-24.75,8.2c-22.6,0-40.93-18-40.93-40.3a39.48,39.48,0,0,1,1-9"/><g class="cls-4"><text class="cls-5" transform="translate(0 109.92)">NOCTURN<tspan class="cls-6" x="45" y="0">A</tspan></text><text class="cls-7" transform="translate(54.13 109.92)">L</text><text class="cls-5" transform="translate(59.15 109.92)"> </text><text class="cls-8" transform="translate(63.19 109.92)">V</text><text class="cls-5" transform="translate(69.85 109.92)">OICES </text><text class="cls-9" transform="translate(28.19 120.72)">P</text><text class="cls-10" transform="translate(34.2 120.72)">R</text><text class="cls-11" transform="translate(40.24 120.72)">O</text><text class="cls-5" transform="translate(47.71 120.72)">J</text><text class="cls-10" transform="translate(52.23 120.72)">E</text><text class="cls-5" transform="translate(57.7 120.72)">C</text><text class="cls-8" transform="translate(63.77 120.72)">T</text></g></g></g></svg>